<svg id="Layer_1" enable-background="new 0 0 496 496" height="512" viewBox="0 0 496 496" width="512" xmlns="http://www.w3.org/2000/svg"><path d="m496 311.999c-9.56 28.67-36.38 48-66.6 48h-308.9c-42.255 0-83.787-11.032-120.5-32l16-40c230.461 30.757 391.596 59.334 480 24z" fill="#6d6d6d"/><path d="m496 311.999c-9.56 28.67-36.38 48-66.6 48h-308.9c-42.255 0-83.787-11.032-120.5-32l16-40c-5.089-30.553-.065-62.548 15.3-90.72 17.15-31.446 18.167-36.028 27.06-41.31 12.994-7.705 29.713-3.864 38.06 8.65 15.287 22.919 17.022 26.904 25.39 32.81 13.226 9.312 30.364 10.48 44.62 3.36l33.57-16.79-8-12c-5.607-8.455-4.812-16.786-.66-23.01 2.709-4.11 7.279-12.699 19.243-12.699 7.598 0-7.189-7.288 181.833 102.958 15.722 9.17 29.456 8.75 39.583 8.75 35.362.001 64.001 28.644 64.001 64.001z" fill="#535655"/><path d="m495.91 308.589c-12.77 19.28-34.58 31.41-58.51 31.41h-308.9c-42.255 0-83.787-11.032-120.5-32l16-40c-3.66-21.98-2.05-44.37 4.54-65.38 1.805-3.694 1.251-2.563 19.4-35.85 10.153-18.623 36.608-19.935 48.48-2.15l14.23 21.35c12.309 18.443 36.249 24.575 55.78 14.82l33.57-16.79-8-12 16-8c-9.112-13.674-11.18-15.769-11.86-21.73 3.776-4.005 8.94-5.978 14.443-5.978 7.683 0-5.686-6.193 181.958 103.25 15.722 9.17 29.331 8.458 39.458 8.458 34.232 0 62.132 26.822 63.911 60.59z" fill="#6d6d6d"/><path d="m317.85 258.869-48.52 62.28c-12.5-1.26-24.98-2.7-37.43-4.32-.884-13.924-7.598-26.997-18.64-35.82-14.08-11.27-29.9-20.15-46.85-26.31l-138.67-50.43c2.026-4.27 2.982-5.936 8.89-16.77 11.644-21.354 13.228-26.48 21.73-31.53 12.994-7.705 29.713-3.864 38.06 8.65 15.287 22.919 17.022 26.904 25.39 32.81 13.226 9.312 30.364 10.48 44.62 3.36l33.57-16.79c66.646 47.04 81.824 59.905 117.85 74.87z" fill="#6cc2dd"/><path d="m279.477 288.126c-14.118 18.121-42.681 13.845-51.171-6.972-3.143-7.706-8.252-14.716-15.046-20.145-14.08-11.27-29.9-20.15-46.85-26.31l-107.588-39.129c-11.645-4.235-16.847-17.862-10.882-28.801 10.155-18.622 36.608-19.935 48.48-2.15l14.23 21.35c12.309 18.443 36.249 24.575 55.78 14.82l33.57-16.79c67.784 47.843 66.035 46.669 70.82 49.842 18.157 12.038 22.046 37.1 8.657 54.285z" fill="#83d3f2"/><path d="m496 311.999c-26.422 10.56-62.621 16-91.08 16-45.3 0-90.55-2.29-135.59-6.85 18.272-23.465 7.392-9.498 48.52-62.28 33.47 13.88 69.52 21.13 106.15 21.13 8.853 0 16-7.16 16-16 0-8.809-7.126-16-16-16 0-.101-.231 0 8 0 35.363 0 64 28.644 64 64z" fill="#5e96ea"/><path d="m493.16 293.099c-48.411 18.226-102.064 15.819-153.51 13.31-23.84-1.16-36.47-28.72-21.8-47.54 32.563 13.508 68.573 21.13 106.15 21.13 14.218 0 21.331-17.065 11.32-27.32-2.9-2.89-6.9-4.68-11.32-4.68v-.02c6.352.296 31.588-2.912 53.26 18.76 7.27 7.27 12.8 16.28 15.9 26.36z" fill="#7aacf4"/><path d="m440 263.999c0 8.853-7.16 16-16 16-56.473 0-112.474-17.283-159.89-50.75l-64.11-45.25-8.65-12.98c-4.342-6.45-4.561-15.198-.01-22.03 2.984-4.526 4.828-7.925 9.9-10.63 5.997-3.23 13.378-3.169 19.4.35 134.268 78.465 64.641 37.71 140.86 82.17 31.448 18.345 41.676 26.698 62.5 27.1 0 .103.726-.109 2.83.28 7.527 1.309 13.17 7.904 13.17 15.74z" fill="#b3cec9"/><path d="m231.9 316.829c-.655-.086 10.289 1.356-215.9-28.83-4.738-28.454-.655-57.663 11.74-83.73l138.67 50.43c16.95 6.16 32.77 15.04 46.85 26.31 10.585 8.457 17.72 21.327 18.64 35.82z" fill="#5e96ea"/><path d="m225.86 296.029c-9.881-1.355-158.848-21.222-158.736-21.207-34.102-4.551-53.44-40.994-39.384-70.553l138.67 50.43c16.95 6.16 32.77 15.04 46.85 26.31 5.22 4.17 9.47 9.29 12.6 15.02z" fill="#7aacf4"/><path d="m426.83 248.259c-1.065 7.787-7.776 13.74-15.83 13.74-56.473 0-112.474-17.283-159.89-50.75l-61.48-43.39c-2.63-6.1-2.06-13.21 1.71-18.87 2.984-4.526 4.828-7.925 9.9-10.63 5.997-3.23 13.378-3.169 19.4.35 134.268 78.465 64.641 37.71 140.86 82.17 31.448 18.345 41.676 26.698 62.5 27.1 0 .103.726-.108 2.83.28z" fill="#cae0dd"/><g fill="#6d6d6d"><path d="m256.006 199.999c-7.654 0-10.958-9.786-4.806-14.4l32-24c3.531-2.65 8.547-1.936 11.2 1.601 2.65 3.534 1.935 8.549-1.601 11.2-35.004 26.253-33.179 25.599-36.793 25.599z"/><path d="m296.006 223.999c-7.654 0-10.958-9.786-4.806-14.4l32-24c3.531-2.65 8.547-1.936 11.2 1.601 2.65 3.534 1.935 8.549-1.601 11.2-35.004 26.253-33.179 25.599-36.793 25.599z"/><path d="m336.006 247.999c-7.654 0-10.958-9.786-4.806-14.4l32-24c3.531-2.65 8.547-1.936 11.2 1.601 2.65 3.534 1.935 8.549-1.601 11.2-35.004 26.253-33.179 25.599-36.793 25.599z"/></g></svg>