<?xml version="1.0" encoding="iso-8859-1"?>
<!-- Generator: Adobe Illustrator 21.0.0, SVG Export Plug-In . SVG Version: 6.00 Build 0)  -->
<svg xmlns="http://www.w3.org/2000/svg" xmlns:xlink="http://www.w3.org/1999/xlink" version="1.1" id="Capa_1" x="0px" y="0px" viewBox="0 0 512 512" style="enable-background:new 0 0 512 512;" xml:space="preserve" width="512" height="512">
<g>
	<path style="fill:#09607D;" d="M495.999,166.6c-0.79,90.03-24.56,174.94-66.92,239.08C383.789,474.24,322.33,512,256,512   S128.201,474.24,82.911,405.67c-42.36-64.14-66.12-149.05-66.91-239.09c-0.04-4.53,0.86-8.94,2.68-13.1   c3.92-8.97,9.51-12.67,17.25-17.8l0.74-0.46c11.21-6.53,22.9-14.28,34.15-22.56c10.65-7.85,20.91-16.16,30-24.39   c1.3-1.17,2.58-2.35,3.83-3.52c23.31-21.83,37.39-42.11,39.64-57.11C146.661,11.88,160.631,0,176.79,0H328.52   c16.16,0,30.13,11.88,32.5,27.64c1.4,9.32,7.91,25.17,30.96,47.83c5.71,5.6,12.13,11.31,19.2,17.05c9,7.32,19.05,14.71,30,22.07   c10.74,7.22,22.34,14.41,34.68,21.47c6.14,3.51,13.11,7.5,17.45,17.42C495.139,157.65,496.039,162.06,495.999,166.6z"/>
	<path style="fill:#00272A;" d="M495.999,166.6c-0.79,90.03-24.56,174.94-66.92,239.08C383.789,474.24,322.33,512,256,512V0h72.52   c16.16,0,30.13,11.88,32.5,27.64c1.4,9.32,7.91,25.17,30.96,47.83c5.71,5.6,12.13,11.31,19.2,17.05c9,7.32,19.05,14.71,30,22.07   c10.74,7.22,22.34,14.41,34.68,21.47c6.14,3.51,13.11,7.5,17.45,17.42C495.139,157.65,496.039,162.06,495.999,166.6z"/>
	<g>
		<path style="fill:#F3F8F9;" d="M229.562,348.551c-15.617-2.802-30.902-8.109-45.432-15.775c-3.86-2.036-7.718-4.269-11.466-6.635    l16.017-25.366c3.093,1.953,6.271,3.792,9.446,5.467c11.799,6.225,24.158,10.525,36.733,12.781L229.562,348.551z"/>
	</g>
	<g>
		<path style="fill:#E0E0E0;" d="M282.414,348.597l-5.204-29.545c16.25-2.862,31.978-9.011,46.747-18.274l15.94,25.414    C321.834,337.522,302.494,345.06,282.414,348.597z"/>
	</g>
	<path style="fill:#F3F8F9;" d="M150.621,266.95l-23.06,19.19c-3.24-3.88-6.4-7.97-9.4-12.14c-30.53-42.39-47.34-96.75-47.34-153.06   v-8.28c10.65-7.85,20.91-16.16,30-24.39v32.67c0,50.07,14.8,98.2,41.68,135.53C145.101,260.07,147.831,263.6,150.621,266.95z"/>
	<path style="fill:#E0E0E0;" d="M441.179,114.59v8.35c0,60.98-19.36,118.32-54.51,161.46l-23.26-18.95   c30.8-37.8,47.77-88.42,47.77-142.51V92.52C420.179,99.84,430.229,107.23,441.179,114.59z"/>
	<g>
		<path style="fill:#FFDF24;" d="M157.6,251.864c-24.268,0-44.011,19.743-44.011,44.011s19.743,44.012,44.011,44.012    s44.011-19.744,44.011-44.012S181.868,251.864,157.6,251.864z"/>
		<path style="fill:#CEF8FF;" d="M312.61,391.62l-41.92,41.93c-4.05,4.05-9.37,6.07-14.69,6.07s-10.64-2.02-14.69-6.07l-41.92-41.93    c-6.62-6.62-7.99-16.91-3.33-25.03l43.26-75.28c3.42-5.96,9.81-9.66,16.68-9.66s13.26,3.7,16.68,9.66l43.26,75.28    C320.6,374.71,319.23,385,312.61,391.62z"/>
		<path style="fill:#ECBD00;" d="M354.978,251.864c-24.268,0-44.011,19.743-44.011,44.011s19.743,44.012,44.011,44.012    s44.011-19.744,44.011-44.012S379.246,251.864,354.978,251.864z"/>
	</g>
	<path style="fill:#50E6FF;" d="M312.61,391.62l-41.92,41.93c-4.05,4.05-9.37,6.07-14.69,6.07V281.65c6.87,0,13.26,3.7,16.68,9.66   l43.26,75.28C320.6,374.71,319.23,385,312.61,391.62z"/>
</g>















</svg>
